<svg width="43" height="34" viewBox="0 0 43 34" fill="none" xmlns="http://www.w3.org/2000/svg">
<path d="M17.0967 33.3187C7.68496 33.3187 0.0253906 25.6247 0.0253906 16.1706C0.0253906 14.4105 0.300738 12.6756 0.826394 11.0161L5.28195 13.4551C5.0817 14.3602 4.98158 15.2654 4.98158 16.1957C4.98158 22.9092 10.4384 28.3905 17.1217 28.3905C23.8051 28.3905 29.2619 22.9092 29.2619 16.1957C29.2619 15.2906 29.1618 14.3602 28.9615 13.4551L33.4171 11.0161C33.9427 12.6756 34.2181 14.4105 34.2181 16.1706C34.168 25.6247 26.5085 33.3187 17.0967 33.3187Z" fill="#222222"/>
<path d="M33.3917 10.9658L28.8861 13.4299C29.0863 14.31 29.2115 15.2403 29.2115 16.1706C29.2115 22.884 23.7797 28.3402 17.0964 28.3402C10.413 28.3402 4.98123 22.884 4.98123 16.1706C4.98123 15.2151 5.08135 14.31 5.30663 13.4299L0.801003 10.9658C0.275347 12.6002 0 14.3602 0 16.1706C0 25.6498 7.65957 33.3438 17.0964 33.3438C26.5331 33.3438 34.1927 25.6498 34.1927 16.1706C34.1927 14.3602 33.9174 12.6253 33.3917 10.9658ZM33.3667 11.0664C33.8923 12.7259 34.1426 14.4357 34.1426 16.1706C34.1426 25.5995 26.5081 33.2936 17.0964 33.2936C7.6846 33.2936 0.0500656 25.6247 0.0500656 16.1706C0.0500656 14.4357 0.30038 12.7007 0.826036 11.0664L5.23154 13.4802C5.03129 14.3854 4.93116 15.2906 4.93116 16.1957C4.93116 22.9343 10.388 28.4156 17.0964 28.4156C23.8047 28.4156 29.2615 22.9343 29.2615 16.1957C29.2615 15.2906 29.1614 14.3854 28.9612 13.4802L33.3667 11.0664Z" fill="#222222"/>
<path d="M9.13672 10.9155L20.2006 17.3021L19.9002 17.8049L9.13672 10.9155Z" fill="#222222"/>
<path d="M4.50537 8.09912L19.9246 17.9806L20.3752 17.2515L4.50537 8.09912ZM13.7419 13.7313L19.9997 17.3521L19.8245 17.6286L13.7419 13.7313Z" fill="#222222"/>
<path d="M13.9429 17.3017L33.8177 5.55957L14.2432 17.8046L13.9429 17.3017Z" fill="#222222"/>
<path d="M42.1521 0.505859L13.7666 17.2517L14.2172 17.9808L42.1521 0.505859ZM25.4812 10.6388L14.2923 17.654L14.117 17.3522L25.4812 10.6388Z" fill="#222222"/>
</svg>
